<svg width="24" height="24" viewBox="0 0 24 24" fill="none" xmlns="http://www.w3.org/2000/svg">
<circle cx="12" cy="12" r="12" fill="white"/>
<g clip-path="url(#clip0_38_13)">
<path fill-rule="evenodd" clip-rule="evenodd" d="M6.19354 12.3867C6.19354 12.284 6.23433 12.1856 6.30692 12.113C6.37952 12.0404 6.47797 11.9996 6.58064 11.9996H15.7107L13.2743 9.56399C13.2016 9.49131 13.1608 9.39272 13.1608 9.28993C13.1608 9.18714 13.2016 9.08855 13.2743 9.01586C13.347 8.94318 13.4456 8.90234 13.5484 8.90234C13.6512 8.90234 13.7498 8.94318 13.8224 9.01586L16.9192 12.1126C16.9553 12.1486 16.9839 12.1913 17.0034 12.2383C17.0229 12.2854 17.0329 12.3358 17.0329 12.3867C17.0329 12.4376 17.0229 12.488 17.0034 12.5351C16.9839 12.5821 16.9553 12.6248 16.9192 12.6608L13.8224 15.7575C13.7498 15.8302 13.6512 15.8711 13.5484 15.8711C13.4456 15.8711 13.347 15.8302 13.2743 15.7575C13.2016 15.6849 13.1608 15.5863 13.1608 15.4835C13.1608 15.3807 13.2016 15.2821 13.2743 15.2094L15.7107 12.7738H6.58064C6.47797 12.7738 6.37952 12.733 6.30692 12.6604C6.23433 12.5878 6.19354 12.4894 6.19354 12.3867Z" fill="#037E8C"/>
</g>
<defs>
<clipPath id="clip0_38_13">
<rect width="12.3871" height="12.3871" fill="white" transform="translate(5.41937 6.19336)"/>
</clipPath>
</defs>
</svg>
