<svg width="43" height="41" viewBox="0 0 43 41" fill="none" xmlns="http://www.w3.org/2000/svg">
<g clip-path="url(#clip0_30_2908)">
<path d="M21.7595 26.3142C25.2008 26.3142 27.9906 23.6819 27.9906 20.4349C27.9906 17.1879 25.2008 14.5557 21.7595 14.5557C18.3181 14.5557 15.5283 17.1879 15.5283 20.4349C15.5283 23.6819 18.3181 26.3142 21.7595 26.3142Z" fill="#121214"/>
<path d="M31.404 20.763C31.404 25.7883 27.086 29.8615 21.7595 29.8615C16.4329 29.8615 12.1149 25.7883 12.1149 20.763C12.1149 19.8625 12.2544 18.9926 12.5129 18.1709H9.6629V30.9331C9.6629 31.5942 10.2177 32.134 10.8962 32.134H32.5034C33.1823 32.134 33.7375 31.5942 33.7375 30.9331V18.1709H31.006C31.264 18.9926 31.404 19.8625 31.404 20.763Z" fill="#121214"/>
<path d="M28.8189 14.7267H32.3259C33.0944 14.7267 33.7224 14.1152 33.7224 13.3669V10.1112C33.7224 9.36252 33.0944 8.75098 32.3259 8.75098H28.8189C28.05 8.75098 27.4219 9.36252 27.4219 10.1112V13.3669C27.4215 14.1147 28.05 14.7267 28.8189 14.7267Z" fill="#121214"/>
<path d="M21.7297 0C10.1018 0 0.675659 9.17813 0.675659 20.5C0.675659 31.8219 10.1018 41 21.7297 41C33.3576 41 42.7838 31.8219 42.7838 20.5C42.7838 9.17813 33.3576 0 21.7297 0ZM33.2615 35.6065H10.1983C8.00699 35.6065 6.21541 34.0273 6.21541 31.7292V9.27166C6.21541 6.97273 8.00699 5.39396 10.1983 5.39396H33.2615C35.4524 5.39396 37.2445 6.97273 37.2445 9.27166V31.7292C37.2445 34.0273 35.452 35.6065 33.2615 35.6065Z" fill="#121214"/>
</g>
<defs>
<clipPath id="clip0_30_2908">
<rect width="42.1081" height="41" fill="white" transform="translate(0.675659)"/>
</clipPath>
</defs>
</svg>
