<svg width="43" height="41" viewBox="0 0 43 41" fill="none" xmlns="http://www.w3.org/2000/svg">
<ellipse cx="21.0541" cy="20.5" rx="21.0541" ry="20.5" fill="#121214"/>
<path d="M28.7032 22.8284C28.325 22.6392 26.441 21.7406 26.0906 21.619C25.7402 21.4906 25.4834 21.4298 25.2301 21.8082C24.9734 22.1832 24.2448 23.0176 24.0158 23.271C23.7937 23.521 23.5682 23.5514 23.19 23.3656C20.9417 22.271 19.4671 21.4129 17.9856 18.9366C17.5936 18.2778 18.3777 18.3251 19.1098 16.9029C19.2347 16.6529 19.1722 16.4401 19.0751 16.2509C18.9779 16.0617 18.2146 14.2306 17.8954 13.484C17.5866 12.7577 17.2674 12.8591 17.035 12.8455C16.8129 12.832 16.5596 12.832 16.3029 12.832C16.0461 12.832 15.6332 12.9266 15.2828 13.2949C14.9324 13.6698 13.9435 14.5719 13.9435 16.4029C13.9435 18.2339 15.314 20.0075 15.5014 20.2575C15.6957 20.5075 18.1973 24.2642 22.0381 25.8824C24.4668 26.9026 25.4175 26.9905 26.6319 26.8148C27.3709 26.7067 28.894 25.9162 29.2098 25.0412C29.5255 24.1696 29.5255 23.423 29.4318 23.2676C29.3381 23.1021 29.0814 23.0075 28.7032 22.8284Z" fill="white"/>
<path d="M36.0484 13.9947C35.2642 12.1805 34.1401 10.5522 32.7071 9.15356C31.2742 7.75832 29.6019 6.66037 27.7352 5.90026C25.8269 5.11987 23.8007 4.72461 21.712 4.72461H21.6426C19.54 4.73474 17.5034 5.14014 15.5881 5.93742C13.7388 6.70767 12.0804 7.80224 10.6613 9.19747C9.24223 10.5927 8.12849 12.2143 7.35824 14.0217C6.56023 15.8933 6.15776 17.8831 6.16817 19.9303C6.17857 22.2749 6.75453 24.6025 7.83357 26.6835V31.8185C7.83357 32.6766 8.54831 33.3726 9.42959 33.3726H14.7069C16.8441 34.4232 19.2347 34.984 21.6426 34.9941H21.7154C23.7937 34.9941 25.8096 34.6023 27.7075 33.8354C29.5637 33.082 31.2326 32.001 32.662 30.6192C34.095 29.2375 35.2226 27.6227 36.0102 25.8221C36.829 23.9572 37.2454 21.9742 37.2558 19.9269C37.2662 17.8696 36.8568 15.873 36.0484 13.9947V13.9947ZM30.8058 28.7916C28.3736 31.1361 25.1469 32.4266 21.712 32.4266H21.653C19.5608 32.4165 17.4825 31.9098 15.6471 30.9571L15.3557 30.8051H10.4705V26.0484L10.3143 25.7646C9.33591 23.9775 8.81547 21.9539 8.80506 19.9168C8.79118 16.5486 10.1131 13.3866 12.5384 11.0049C14.9601 8.62316 18.1973 7.30563 21.6565 7.29211H21.7154C23.4503 7.29211 25.133 7.61981 26.7186 8.26844C28.2661 8.90018 29.6539 9.80894 30.8474 10.9711C32.0375 12.1298 32.9743 13.4845 33.6231 14.9913C34.2962 16.552 34.6328 18.2074 34.6258 19.9168C34.605 23.2816 33.2484 26.4335 30.8058 28.7916V28.7916Z" fill="white"/>
</svg>
